{
	"asset":{
		"generator":"Khronos glTF Blender I/O v4.2.69",
		"version":"2.0"
	},
	"extensionsUsed":[
		"KHR_materials_specular"
	],
	"scene":0,
	"scenes":[
		{
			"name":"Scene",
			"nodes":[
				0,
				1,
				2
			]
		}
	],
	"nodes":[
		{
			"mesh":0,
			"name":"Preenchimento_de_Cor_1",
			"rotation":[
				0.5,
				0.5,
				-0.5,
				0.5
			],
			"scale":[
				2.5094029903411865,
				2.5094029903411865,
				2.5094029903411865
			],
			"translation":[
				0.20438313484191895,
				1.3547533750534058,
				-0.10310077667236328
			]
		},
		{
			"mesh":1,
			"name":"Preenchimento_de_Cor_1.001",
			"rotation":[
				0.5,
				0.5,
				-0.5,
				0.5
			],
			"scale":[
				2.5094029903411865,
				2.5094029903411865,
				2.5094029903411865
			],
			"translation":[
				0.20438313484191895,
				1.3547533750534058,
				-0.10310077667236328
			]
		},
		{
			"mesh":2,
			"name":"Cubo",
			"translation":[
				-0.8635649681091309,
				1.1815966367721558,
				0
			]
		}
	],
	"materials":[
		{
			"doubleSided":true,
			"name":"Materiais",
			"pbrMetallicRoughness":{
				"baseColorFactor":[
					0,
					0.2279263734817505,
					1,
					1
				],
				"metallicFactor":0,
				"roughnessFactor":0.5
			}
		},
		{
			"doubleSided":true,
			"name":"Materiais.001",
			"pbrMetallicRoughness":{
				"baseColorFactor":[
					0.3074409067630768,
					0.341561496257782,
					0.3334043622016907,
					1
				],
				"metallicRoughnessTexture":{
					"index":0
				}
			}
		},
		{
			"doubleSided":true,
			"extensions":{
				"KHR_materials_specular":{
					"specularColorFactor":[
						1.2000000476837158,
						1.2000000476837158,
						1.2000000476837158
					]
				}
			},
			"name":"Materiais.002",
			"pbrMetallicRoughness":{
				"metallicFactor":0,
				"roughnessFactor":0.3499999940395355
			}
		}
	],
	"meshes":[
		{
			"name":"Preenchimento_de_Cor_1",
			"primitives":[
				{
					"attributes":{
						"POSITION":0,
						"NORMAL":1,
						"TEXCOORD_0":2
					},
					"indices":3,
					"material":0
				},
				{
					"attributes":{
						"POSITION":4,
						"NORMAL":5,
						"TEXCOORD_0":6
					},
					"indices":7,
					"material":1
				}
			]
		},
		{
			"name":"Preenchimento_de_Cor_1.001",
			"primitives":[
				{
					"attributes":{
						"POSITION":8,
						"NORMAL":9,
						"TEXCOORD_0":10
					},
					"indices":11,
					"material":1
				}
			]
		},
		{
			"name":"Cubo.001",
			"primitives":[
				{
					"attributes":{
						"POSITION":12,
						"NORMAL":13,
						"TEXCOORD_0":14
					},
					"indices":15,
					"material":2
				}
			]
		}
	],
	"textures":[
		{
			"sampler":0,
			"source":0
		}
	],
	"images":[
		{
			"mimeType":"image/png",
			"name":"roughpaint",
			"uri":"roughpaint.png"
		}
	],
	"accessors":[
		{
			"bufferView":0,
			"componentType":5126,
			"count":6121,
			"max":[
				0.20463748276233673,
				-0.02309238910675049,
				0.06607067584991455
			],
			"min":[
				-0.24372747540473938,
				-0.02309238910675049,
				-0.13106070458889008
			],
			"type":"VEC3"
		},
		{
			"bufferView":1,
			"componentType":5126,
			"count":6121,
			"type":"VEC3"
		},
		{
			"bufferView":2,
			"componentType":5126,
			"count":6121,
			"type":"VEC2"
		},
		{
			"bufferView":3,
			"componentType":5123,
			"count":23580,
			"type":"SCALAR"
		},
		{
			"bufferView":4,
			"componentType":5126,
			"count":661,
			"max":[
				0.09640437364578247,
				-0.02309238910675049,
				0.0839962512254715
			],
			"min":[
				-0.1352989375591278,
				-0.02309238910675049,
				-0.1483103483915329
			],
			"type":"VEC3"
		},
		{
			"bufferView":5,
			"componentType":5126,
			"count":661,
			"type":"VEC3"
		},
		{
			"bufferView":6,
			"componentType":5126,
			"count":661,
			"type":"VEC2"
		},
		{
			"bufferView":7,
			"componentType":5123,
			"count":2604,
			"type":"SCALAR"
		},
		{
			"bufferView":8,
			"componentType":5126,
			"count":1204,
			"max":[
				0.22499750554561615,
				-0.02309238910675049,
				0.20885001122951508
			],
			"min":[
				-0.25083884596824646,
				-0.02309238910675049,
				0.13720464706420898
			],
			"type":"VEC3"
		},
		{
			"bufferView":9,
			"componentType":5126,
			"count":1204,
			"type":"VEC3"
		},
		{
			"bufferView":10,
			"componentType":5126,
			"count":1204,
			"type":"VEC2"
		},
		{
			"bufferView":11,
			"componentType":5123,
			"count":4704,
			"type":"SCALAR"
		},
		{
			"bufferView":12,
			"componentType":5126,
			"count":144,
			"max":[
				1,
				0.8390804529190063,
				1
			],
			"min":[
				0.8709458112716675,
				-1.1609196662902832,
				-1
			],
			"type":"VEC3"
		},
		{
			"bufferView":13,
			"componentType":5126,
			"count":144,
			"type":"VEC3"
		},
		{
			"bufferView":14,
			"componentType":5126,
			"count":144,
			"type":"VEC2"
		},
		{
			"bufferView":15,
			"componentType":5123,
			"count":276,
			"type":"SCALAR"
		}
	],
	"bufferViews":[
		{
			"buffer":0,
			"byteLength":73452,
			"byteOffset":0,
			"target":34962
		},
		{
			"buffer":0,
			"byteLength":73452,
			"byteOffset":73452,
			"target":34962
		},
		{
			"buffer":0,
			"byteLength":48968,
			"byteOffset":146904,
			"target":34962
		},
		{
			"buffer":0,
			"byteLength":47160,
			"byteOffset":195872,
			"target":34963
		},
		{
			"buffer":0,
			"byteLength":7932,
			"byteOffset":243032,
			"target":34962
		},
		{
			"buffer":0,
			"byteLength":7932,
			"byteOffset":250964,
			"target":34962
		},
		{
			"buffer":0,
			"byteLength":5288,
			"byteOffset":258896,
			"target":34962
		},
		{
			"buffer":0,
			"byteLength":5208,
			"byteOffset":264184,
			"target":34963
		},
		{
			"buffer":0,
			"byteLength":14448,
			"byteOffset":269392,
			"target":34962
		},
		{
			"buffer":0,
			"byteLength":14448,
			"byteOffset":283840,
			"target":34962
		},
		{
			"buffer":0,
			"byteLength":9632,
			"byteOffset":298288,
			"target":34962
		},
		{
			"buffer":0,
			"byteLength":9408,
			"byteOffset":307920,
			"target":34963
		},
		{
			"buffer":0,
			"byteLength":1728,
			"byteOffset":317328,
			"target":34962
		},
		{
			"buffer":0,
			"byteLength":1728,
			"byteOffset":319056,
			"target":34962
		},
		{
			"buffer":0,
			"byteLength":1152,
			"byteOffset":320784,
			"target":34962
		},
		{
			"buffer":0,
			"byteLength":552,
			"byteOffset":321936,
			"target":34963
		}
	],
	"samplers":[
		{
			"magFilter":9729,
			"minFilter":9987
		}
	],
	"buffers":[
		{
			"byteLength":322488,
			"uri":"modelo3d.bin"
		}
	]
}
